PathFileType	4	(X/Y/Z) shrug_2kg_2.trc																										
DataRate	CameraRate	NumFrames	NumMarkers	Units	OrigDataRate	OrigDataStartFrame	OrigNumFrames																					
100	100	34	9	mm	100	301	480																					
Frame#	Time	gu			centelbow			EpL			centpxt8			centijc7			ij			ts			aa			ai		
		X1	Y1	Z1	X2	Y2	Z2	X3	Y3	Z3	X4	Y4	Z4	X5	Y5	Z5	X6	Y6	Z6	X7	Y7	Z7	X8	Y8	Z8	X9	Y9	Z9  
300	3	-122.696	35.429	151.375	-116.111	-204.931	207.661	-109.157	-193.746	237.088	-46.816	-153.158	-8.669	-46.816	31.938	-8.669	0	0	0	-131.925	46.427	20.144	-151.678	67.35	135.889	-143.748	-64.036	43.465
301	3.01	-121.8	34.741	151.285	-115.603	-205.984	206.029	-108.342	-195.008	235.461	-46.816	-153.158	-8.669	-46.816	31.938	-8.669	0	0	0	-132.304	46.79	20.201	-150.939	66.649	136.318	-144.402	-63.846	42.534
302	3.02	-120.871	34.22	150.61	-115.006	-206.813	204.027	-107.453	-196.017	233.452	-46.816	-153.158	-8.669	-46.816	31.938	-8.669	0	0	0	-132.701	47.209	20.05	-150.275	66.091	136.495	-145.077	-63.575	41.485
303	3.03	-120.006	33.606	150.27	-114.5	-207.65	202.707	-106.728	-196.991	232.125	-46.816	-153.158	-8.669	-46.816	31.938	-8.669	0	0	0	-132.644	47.31	20.574	-149.434	65.392	137.262	-145.332	-63.581	41.26
304	3.04	-119.396	32.62	150.981	-114.4	-208.82	202.616	-106.483	-198.279	232.038	-46.816	-153.158	-8.669	-46.816	31.938	-8.669	0	0	0	-132.196	46.855	22.105	-148.485	64.265	138.965	-145.264	-64.112	42.134
305	3.05	-118.939	31.496	152.049	-114.528	-210.127	202.876	-106.481	-199.708	232.306	-46.816	-153.158	-8.669	-46.816	31.938	-8.669	0	0	0	-131.793	46.413	23.479	-147.616	63.184	140.497	-145.211	-64.622	42.89
306	3.06	-118.241	30.661	152.497	-114.41	-211.159	202.423	-106.186	-200.875	231.852	-46.816	-153.158	-8.669	-46.816	31.938	-8.669	0	0	0	-131.69	46.573	23.694	-146.848	62.671	140.894	-145.372	-64.535	42.489
307	3.07	-117.255	30.164	152.423	-114.115	-211.878	201.309	-105.65	-201.753	230.724	-46.816	-153.158	-8.669	-46.816	31.938	-8.669	0	0	0	-131.79	47.175	23.341	-146.072	62.528	140.751	-145.776	-64.007	41.473
308	3.08	-116.385	29.714	152.334	-114.192	-212.572	200.052	-105.429	-202.634	229.444	-46.816	-153.158	-8.669	-46.816	31.938	-8.669	0	0	0	-131.907	47.753	23.363	-145.188	62.281	140.996	-146.377	-63.485	40.752
309	3.09	-115.888	28.877	152.314	-114.871	-213.653	198.816	-105.772	-203.92	228.174	-46.816	-153.158	-8.669	-46.816	31.938	-8.669	0	0	0	-132.054	47.973	23.757	-144.256	61.62	141.611	-147.165	-63.301	40.352
310	3.1	-115.52	27.248	152.386	-115.74	-215.508	197.706	-106.301	-205.981	227.024	-46.816	-153.158	-8.669	-46.816	31.938	-8.669	0	0	0	-132.315	47.543	24.2	-143.427	60.291	142.263	-148.087	-63.755	39.998
311	3.11	-114.953	24.946	152.701	-116.231	-218.01	196.913	-106.495	-208.674	226.195	-46.816	-153.158	-8.669	-46.816	31.938	-8.669	0	0	0	-132.554	46.462	24.782	-142.704	58.292	143.027	-148.88	-64.868	39.777
312	3.12	-114.209	22.837	153.077	-116.108	-220.29	196.322	-106.14	-211.109	225.576	-46.816	-153.158	-8.669	-46.816	31.938	-8.669	0	0	0	-132.512	45.378	25.388	-141.911	56.291	143.783	-149.199	-66.003	39.58
313	3.13	-113.529	21.631	152.999	-115.522	-221.624	195.51	-105.377	-212.546	224.735	-46.816	-153.158	-8.669	-46.816	31.938	-8.669	0	0	0	-132.272	45.003	25.4	-141.07	55.081	143.915	-149.089	-66.448	38.874
314	3.14	-113.141	21.098	152.29	-114.928	-222.248	194.286	-104.634	-213.234	223.478	-46.816	-153.158	-8.669	-46.816	31.938	-8.669	0	0	0	-132.213	45.181	24.753	-140.516	54.583	143.359	-149.016	-66.339	37.658
315	3.15	-113.09	20.625	151.459	-114.734	-222.79	193.058	-104.317	-213.825	222.222	-46.816	-153.158	-8.669	-46.816	31.938	-8.669	0	0	0	-132.374	45.223	24.291	-140.343	54.104	142.96	-149.173	-66.348	36.751
316	3.16	-113.203	19.986	151.167	-114.998	-223.487	192.421	-104.495	-214.575	221.57	-46.816	-153.158	-8.669	-46.816	31.938	-8.669	0	0	0	-132.458	44.893	24.691	-140.292	53.342	143.401	-149.352	-66.707	36.755
317	3.17	-113.355	19.318	151.511	-115.647	-224.214	192.392	-105.094	-215.37	221.544	-46.816	-153.158	-8.669	-46.816	31.938	-8.669	0	0	0	-132.448	44.559	25.755	-140.254	52.584	144.497	-149.559	-67.052	37.408
318	3.18	-113.571	18.83	152.044	-116.754	-224.778	192.408	-106.15	-216.037	221.572	-46.816	-153.158	-8.669	-46.816	31.938	-8.669	0	0	0	-132.577	44.631	26.899	-140.262	52.168	145.68	-150.077	-66.968	38.081
319	3.19	-113.801	18.472	152.401	-118.433	-225.232	192.039	-107.727	-216.644	221.211	-46.816	-153.158	-8.669	-46.816	31.938	-8.669	0	0	0	-132.918	45.027	27.84	-140.195	51.982	146.682	-151.076	-66.52	38.488
320	3.2	-113.856	17.89	152.545	-120.541	-225.905	191.322	-109.658	-217.519	220.488	-46.816	-153.158	-8.669	-46.816	31.938	-8.669	0	0	0	-133.415	45.207	28.516	-139.919	51.526	147.439	-152.503	-66.235	38.621
321	3.21	-113.593	16.898	152.518	-122.504	-226.953	190.483	-111.402	-218.778	219.626	-46.816	-153.158	-8.669	-46.816	31.938	-8.669	0	0	0	-133.921	44.787	28.856	-139.428	50.491	147.86	-154.009	-66.52	38.484
322	3.22	-112.935	15.757	152.311	-123.637	-228.122	189.634	-112.333	-220.119	218.748	-46.816	-153.158	-8.669	-46.816	31.938	-8.669	0	0	0	-134.129	43.996	28.92	-138.682	49.142	147.99	-155.015	-67.198	38.147
323	3.23	-111.942	14.902	151.854	-123.766	-229.004	188.659	-112.299	-221.128	217.744	-46.816	-153.158	-8.669	-46.816	31.938	-8.669	0	0	0	-133.933	43.504	28.811	-137.726	48.114	147.93	-155.293	-67.632	37.651
324	3.24	-110.973	14.495	151.276	-123.445	-229.457	187.555	-111.847	-221.686	216.616	-46.816	-153.158	-8.669	-46.816	31.938	-8.669	0	0	0	-133.613	43.68	28.689	-136.802	47.723	147.846	-155.202	-67.445	37.099
325	3.25	-110.39	14.324	151.053	-123.396	-229.689	186.725	-111.682	-222.027	215.768	-46.816	-153.158	-8.669	-46.816	31.938	-8.669	0	0	0	-133.397	44.164	28.929	-136.055	47.591	148.118	-155.176	-66.96	36.854
326	3.26	-110.15	14.09	151.403	-123.845	-229.986	186.381	-112.012	-222.45	215.409	-46.816	-153.158	-8.669	-46.816	31.938	-8.669	0	0	0	-133.331	44.469	29.672	-135.447	47.241	148.889	-155.429	-66.628	37.077
327	3.27	-109.963	13.398	151.957	-124.623	-230.729	186.184	-112.64	-223.342	215.189	-46.816	-153.158	-8.669	-46.816	31.938	-8.669	0	0	0	-133.496	44.409	30.555	-134.957	46.499	149.795	-156.096	-66.621	37.438
328	3.28	-109.687	11.945	152.419	-125.59	-232.209	185.888	-113.414	-224.992	214.855	-46.816	-153.158	-8.669	-46.816	31.938	-8.669	0	0	0	-133.958	43.999	31.188	-134.614	45.398	150.446	-157.21	-66.925	37.573
329	3.29	-109.405	10.124	152.96	-126.628	-234.037	185.717	-114.236	-226.993	214.634	-46.816	-153.158	-8.669	-46.816	31.938	-8.669	0	0	0	-134.63	43.602	31.509	-134.408	44.326	150.774	-158.569	-67.202	37.438
330	3.3	-109.152	8.615	153.836	-127.509	-235.551	185.93	-114.909	-228.666	214.796	-46.816	-153.158	-8.669	-46.816	31.938	-8.669	0	0	0	-135.193	43.617	31.726	-134.168	43.712	150.99	-159.72	-67.079	37.238
331	3.31	-108.866	7.531	154.928	-128.114	-236.652	186.371	-115.327	-229.911	215.188	-46.816	-153.158	-8.669	-46.816	31.938	-8.669	0	0	0	-135.323	43.9	32.006	-133.673	43.437	151.262	-160.296	-66.715	37.135
332	3.32	-108.646	6.711	155.797	-128.644	-237.493	186.596	-115.693	-230.887	215.372	-46.816	-153.158	-8.669	-46.816	31.938	-8.669	0	0	0	-135.201	44.094	32.289	-133.12	43.168	151.535	-160.528	-66.455	37.085
333	3.33	-108.663	6.173	156.174	-129.384	-238.043	186.399	-116.292	-231.559	215.139	-46.816	-153.158	-8.669	-46.816	31.938	-8.669	0	0	0	-135.219	44.192	32.631	-132.866	42.889	151.869	-160.883	-66.291	37.143
